<mxfile host="app.diagrams.net" agent="Mozilla/5.0 (Macintosh; Intel Mac OS X 10_15_7) AppleWebKit/605.1.15 (KHTML, like Gecko) Version/18.2 Safari/605.1.15" version="26.1.0">
  <diagram name="第 1 页" id="MMufTPd5Sj8PvxqMtKRT">
    <mxGraphModel dx="1183" dy="1854" grid="1" gridSize="10" guides="1" tooltips="1" connect="1" arrows="1" fold="1" page="1" pageScale="1" pageWidth="1654" pageHeight="1169" math="0" shadow="0">
      <root>
        <mxCell id="0" />
        <mxCell id="1" parent="0" />
        <mxCell id="InkfnJQ6Ur_ESFkkAOH5-1" value="Restaurant" style="rounded=0;whiteSpace=wrap;html=1;" parent="1" vertex="1">
          <mxGeometry x="605" y="382.96" width="120" height="60" as="geometry" />
        </mxCell>
        <mxCell id="InkfnJQ6Ur_ESFkkAOH5-16" value="Deliver Driver" style="rounded=0;whiteSpace=wrap;html=1;" parent="1" vertex="1">
          <mxGeometry x="310" y="735.46" width="120" height="60" as="geometry" />
        </mxCell>
        <mxCell id="InkfnJQ6Ur_ESFkkAOH5-44" value="Platform" style="rounded=0;whiteSpace=wrap;html=1;" parent="1" vertex="1">
          <mxGeometry x="642.5" y="735.46" width="120" height="60" as="geometry" />
        </mxCell>
        <mxCell id="InkfnJQ6Ur_ESFkkAOH5-51" value="num_of_delivers" style="ellipse;whiteSpace=wrap;html=1;dashed=1;dashPattern=8 8;" parent="1" vertex="1">
          <mxGeometry x="720" y="550" width="115" height="50" as="geometry" />
        </mxCell>
        <mxCell id="InkfnJQ6Ur_ESFkkAOH5-52" value="" style="endArrow=none;html=1;rounded=0;entryX=0.5;entryY=0;entryDx=0;entryDy=0;" parent="1" source="InkfnJQ6Ur_ESFkkAOH5-51" target="InkfnJQ6Ur_ESFkkAOH5-44" edge="1">
          <mxGeometry width="50" height="50" relative="1" as="geometry">
            <mxPoint x="615" y="845.46" as="sourcePoint" />
            <mxPoint x="665" y="795.46" as="targetPoint" />
          </mxGeometry>
        </mxCell>
        <mxCell id="InkfnJQ6Ur_ESFkkAOH5-53" value="Order" style="shape=ext;double=1;rounded=0;whiteSpace=wrap;html=1;" parent="1" vertex="1">
          <mxGeometry x="990" y="960" width="120" height="60" as="geometry" />
        </mxCell>
        <mxCell id="InkfnJQ6Ur_ESFkkAOH5-61" value="Chef" style="shape=ext;double=1;rounded=0;whiteSpace=wrap;html=1;" parent="1" vertex="1">
          <mxGeometry x="605" y="60.00000000000001" width="120" height="60" as="geometry" />
        </mxCell>
        <mxCell id="InkfnJQ6Ur_ESFkkAOH5-70" value="&lt;font style=&quot;font-size: 17px;&quot;&gt;has&lt;/font&gt;" style="html=1;whiteSpace=wrap;aspect=fixed;shape=isoRectangle;" parent="1" vertex="1">
          <mxGeometry x="313.33" y="377.96" width="116.67" height="70" as="geometry" />
        </mxCell>
        <mxCell id="InkfnJQ6Ur_ESFkkAOH5-71" value="" style="endArrow=none;html=1;rounded=0;exitX=0.494;exitY=0.962;exitDx=0;exitDy=0;exitPerimeter=0;entryX=0.5;entryY=0;entryDx=0;entryDy=0;" parent="1" source="InkfnJQ6Ur_ESFkkAOH5-70" target="InkfnJQ6Ur_ESFkkAOH5-16" edge="1">
          <mxGeometry width="50" height="50" relative="1" as="geometry">
            <mxPoint x="1050" y="595.46" as="sourcePoint" />
            <mxPoint x="1100" y="545.46" as="targetPoint" />
          </mxGeometry>
        </mxCell>
        <mxCell id="QQaLL_kAYIKGyKtvKJB6-16" value="&lt;font style=&quot;font-size: 21px;&quot;&gt;m&lt;/font&gt;" style="edgeLabel;html=1;align=center;verticalAlign=middle;resizable=0;points=[];" vertex="1" connectable="0" parent="InkfnJQ6Ur_ESFkkAOH5-71">
          <mxGeometry x="0.2525" y="-4" relative="1" as="geometry">
            <mxPoint as="offset" />
          </mxGeometry>
        </mxCell>
        <mxCell id="InkfnJQ6Ur_ESFkkAOH5-73" value="hired" style="html=1;whiteSpace=wrap;aspect=fixed;shape=isoRectangle;" parent="1" vertex="1">
          <mxGeometry x="475.40999999999997" y="735.46" width="100" height="60" as="geometry" />
        </mxCell>
        <mxCell id="InkfnJQ6Ur_ESFkkAOH5-74" value="" style="endArrow=none;html=1;rounded=0;shape=link;entryX=1;entryY=0.5;entryDx=0;entryDy=0;exitX=0.003;exitY=0.503;exitDx=0;exitDy=0;exitPerimeter=0;" parent="1" source="InkfnJQ6Ur_ESFkkAOH5-73" target="InkfnJQ6Ur_ESFkkAOH5-16" edge="1">
          <mxGeometry width="50" height="50" relative="1" as="geometry">
            <mxPoint x="476" y="763" as="sourcePoint" />
            <mxPoint x="360" y="790" as="targetPoint" />
          </mxGeometry>
        </mxCell>
        <mxCell id="InkfnJQ6Ur_ESFkkAOH5-75" value="&lt;font style=&quot;font-size: 21px;&quot;&gt;m&lt;/font&gt;" style="edgeLabel;html=1;align=center;verticalAlign=middle;resizable=0;points=[];" parent="InkfnJQ6Ur_ESFkkAOH5-74" vertex="1" connectable="0">
          <mxGeometry x="0.089" y="-3" relative="1" as="geometry">
            <mxPoint as="offset" />
          </mxGeometry>
        </mxCell>
        <mxCell id="InkfnJQ6Ur_ESFkkAOH5-76" value="" style="endArrow=none;html=1;rounded=0;exitX=0;exitY=0.5;exitDx=0;exitDy=0;shape=link;entryX=0.998;entryY=0.504;entryDx=0;entryDy=0;entryPerimeter=0;" parent="1" source="InkfnJQ6Ur_ESFkkAOH5-44" target="InkfnJQ6Ur_ESFkkAOH5-73" edge="1">
          <mxGeometry width="50" height="50" relative="1" as="geometry">
            <mxPoint x="990" y="715.46" as="sourcePoint" />
            <mxPoint x="311" y="918" as="targetPoint" />
          </mxGeometry>
        </mxCell>
        <mxCell id="InkfnJQ6Ur_ESFkkAOH5-77" value="&lt;font style=&quot;font-size: 21px;&quot;&gt;n&lt;/font&gt;" style="edgeLabel;html=1;align=center;verticalAlign=middle;resizable=0;points=[];" parent="InkfnJQ6Ur_ESFkkAOH5-76" vertex="1" connectable="0">
          <mxGeometry x="0.1063" y="-1" relative="1" as="geometry">
            <mxPoint as="offset" />
          </mxGeometry>
        </mxCell>
        <mxCell id="InkfnJQ6Ur_ESFkkAOH5-78" value="FoodItem&lt;span style=&quot;caret-color: rgba(0, 0, 0, 0); color: rgba(0, 0, 0, 0); font-family: monospace; font-size: 0px; text-align: start; white-space: nowrap;&quot;&gt;%3CmxGraphModel%3E%3Croot%3E%3CmxCell%20id%3D%220%22%2F%3E%3CmxCell%20id%3D%221%22%20parent%3D%220%22%2F%3E%3CmxCell%20id%3D%222%22%20value%3D%22Platform%22%20style%3D%22rounded%3D0%3BwhiteSpace%3Dwrap%3Bhtml%3D1%3B%22%20vertex%3D%221%22%20parent%3D%221%22%3E%3CmxGeometry%20x%3D%22152.5%22%20y%3D%22382.5%22%20width%3D%22120%22%20height%3D%2260%22%20as%3D%22geometry%22%2F%3E%3C%2FmxCell%3E%3CmxCell%20id%3D%223%22%20value%3D%22%26lt%3Bu%26gt%3Bplatform_id%26lt%3B%2Fu%26gt%3B%22%20style%3D%22ellipse%3BwhiteSpace%3Dwrap%3Bhtml%3D1%3B%22%20vertex%3D%221%22%20parent%3D%221%22%3E%3CmxGeometry%20x%3D%22265%22%20y%3D%22297.5%22%20width%3D%2275%22%20height%3D%2250%22%20as%3D%22geometry%22%2F%3E%3C%2FmxCell%3E%3CmxCell%20id%3D%224%22%20value%3D%22%22%20style%3D%22endArrow%3Dnone%3Bhtml%3D1%3Brounded%3D0%3BentryX%3D0.5%3BentryY%3D1%3BentryDx%3D0%3BentryDy%3D0%3BexitX%3D0.75%3BexitY%3D0%3BexitDx%3D0%3BexitDy%3D0%3B%22%20edge%3D%221%22%20source%3D%222%22%20target%3D%223%22%20parent%3D%221%22%3E%3CmxGeometry%20width%3D%2250%22%20height%3D%2250%22%20relative%3D%221%22%20as%3D%22geometry%22%3E%3CmxPoint%20x%3D%22135%22%20y%3D%22392.5%22%20as%3D%22sourcePoint%22%2F%3E%3CmxPoint%20x%3D%22275%22%20y%3D%22432.5%22%20as%3D%22targetPoint%22%2F%3E%3C%2FmxGeometry%3E%3C%2FmxCell%3E%3CmxCell%20id%3D%225%22%20value%3D%22name%22%20style%3D%22ellipse%3BwhiteSpace%3Dwrap%3Bhtml%3D1%3B%22%20vertex%3D%221%22%20parent%3D%221%22%3E%3CmxGeometry%20x%3D%2292.5%22%20y%3D%22297.5%22%20width%3D%2275%22%20height%3D%2250%22%20as%3D%22geometry%22%2F%3E%3C%2FmxCell%3E%3CmxCell%20id%3D%226%22%20value%3D%22website%22%20style%3D%22ellipse%3BwhiteSpace%3Dwrap%3Bhtml%3D1%3B%22%20vertex%3D%221%22%20parent%3D%221%22%3E%3CmxGeometry%20x%3D%22175%22%20y%3D%22297.5%22%20width%3D%2275%22%20height%3D%2250%22%20as%3D%22geometry%22%2F%3E%3C%2FmxCell%3E%3CmxCell%20id%3D%227%22%20value%3D%22%22%20style%3D%22endArrow%3Dnone%3Bhtml%3D1%3Brounded%3D0%3BentryX%3D0.5%3BentryY%3D1%3BentryDx%3D0%3BentryDy%3D0%3BexitX%3D0.333%3BexitY%3D0%3BexitDx%3D0%3BexitDy%3D0%3BexitPerimeter%3D0%3B%22%20edge%3D%221%22%20source%3D%222%22%20target%3D%225%22%20parent%3D%221%22%3E%3CmxGeometry%20width%3D%2250%22%20height%3D%2250%22%20relative%3D%221%22%20as%3D%22geometry%22%3E%3CmxPoint%20x%3D%22175%22%20y%3D%22402.5%22%20as%3D%22sourcePoint%22%2F%3E%3CmxPoint%20x%3D%22225%22%20y%3D%22352.5%22%20as%3D%22targetPoint%22%2F%3E%3C%2FmxGeometry%3E%3C%2FmxCell%3E%3CmxCell%20id%3D%228%22%20value%3D%22%22%20style%3D%22endArrow%3Dnone%3Bhtml%3D1%3Brounded%3D0%3BentryX%3D0.5%3BentryY%3D1%3BentryDx%3D0%3BentryDy%3D0%3BexitX%3D0.5%3BexitY%3D0%3BexitDx%3D0%3BexitDy%3D0%3B%22%20edge%3D%221%22%20source%3D%222%22%20target%3D%226%22%20parent%3D%221%22%3E%3CmxGeometry%20width%3D%2250%22%20height%3D%2250%22%20relative%3D%221%22%20as%3D%22geometry%22%3E%3CmxPoint%20x%3D%22175%22%20y%3D%22403.5%22%20as%3D%22sourcePoint%22%2F%3E%3CmxPoint%20x%3D%22205.9834957055033%22%20y%3D%22326.1776695296645%22%20as%3D%22targetPoint%22%2F%3E%3C%2FmxGeometry%3E%3C%2FmxCell%3E%3CmxCell%20id%3D%229%22%20value%3D%22num_of_delivers%22%20style%3D%22ellipse%3BwhiteSpace%3Dwrap%3Bhtml%3D1%3B%22%20vertex%3D%221%22%20parent%3D%221%22%3E%3CmxGeometry%20y%3D%22387.5%22%20width%3D%22115%22%20height%3D%2250%22%20as%3D%22geometry%22%2F%3E%3C%2FmxCell%3E%3CmxCell%20id%3D%2210%22%20value%3D%22%22%20style%3D%22endArrow%3Dnone%3Bhtml%3D1%3Brounded%3D0%3BentryX%3D0%3BentryY%3D0.5%3BentryDx%3D0%3BentryDy%3D0%3B%22%20edge%3D%221%22%20source%3D%229%22%20target%3D%222%22%20parent%3D%221%22%3E%3CmxGeometry%20width%3D%2250%22%20height%3D%2250%22%20relative%3D%221%22%20as%3D%22geometry%22%3E%3CmxPoint%20x%3D%22125%22%20y%3D%22492.5%22%20as%3D%22sourcePoint%22%2F%3E%3CmxPoint%20x%3D%22175%22%20y%3D%22442.5%22%20as%3D%22targetPoint%22%2F%3E%3C%2FmxGeometry%3E%3C%2FmxCell%3E%3C%2Froot%3E%3C%2FmxGraphModel%3E&lt;/span&gt;" style="shape=ext;double=1;rounded=0;whiteSpace=wrap;html=1;" parent="1" vertex="1">
          <mxGeometry x="1279.9999999999998" y="70.00000000000001" width="120" height="60" as="geometry" />
        </mxCell>
        <mxCell id="InkfnJQ6Ur_ESFkkAOH5-97" value="co-work" style="html=1;whiteSpace=wrap;aspect=fixed;shape=isoRectangle;" parent="1" vertex="1">
          <mxGeometry x="606.67" y="585.46" width="116.67" height="70" as="geometry" />
        </mxCell>
        <mxCell id="InkfnJQ6Ur_ESFkkAOH5-98" value="&lt;font style=&quot;font-size: 21px;&quot;&gt;n&lt;/font&gt;" style="endArrow=none;html=1;rounded=0;exitX=0.5;exitY=1;exitDx=0;exitDy=0;entryX=0.5;entryY=0.044;entryDx=0;entryDy=0;entryPerimeter=0;" parent="1" source="InkfnJQ6Ur_ESFkkAOH5-1" target="InkfnJQ6Ur_ESFkkAOH5-97" edge="1">
          <mxGeometry x="0.0043" width="50" height="50" relative="1" as="geometry">
            <mxPoint x="880" y="667.96" as="sourcePoint" />
            <mxPoint x="930" y="617.96" as="targetPoint" />
            <mxPoint as="offset" />
          </mxGeometry>
        </mxCell>
        <mxCell id="InkfnJQ6Ur_ESFkkAOH5-99" value="" style="endArrow=none;html=1;rounded=0;shape=link;entryX=0.497;entryY=0.956;entryDx=0;entryDy=0;entryPerimeter=0;" parent="1" target="InkfnJQ6Ur_ESFkkAOH5-97" edge="1">
          <mxGeometry width="50" height="50" relative="1" as="geometry">
            <mxPoint x="665" y="734" as="sourcePoint" />
            <mxPoint x="665" y="660" as="targetPoint" />
          </mxGeometry>
        </mxCell>
        <mxCell id="QQaLL_kAYIKGyKtvKJB6-17" value="&lt;font style=&quot;font-size: 21px;&quot;&gt;m&lt;/font&gt;" style="edgeLabel;html=1;align=center;verticalAlign=middle;resizable=0;points=[];" vertex="1" connectable="0" parent="InkfnJQ6Ur_ESFkkAOH5-99">
          <mxGeometry x="-0.1629" y="4" relative="1" as="geometry">
            <mxPoint as="offset" />
          </mxGeometry>
        </mxCell>
        <mxCell id="InkfnJQ6Ur_ESFkkAOH5-101" value="num_cowork" style="ellipse;whiteSpace=wrap;html=1;dashed=1;dashPattern=8 8;" parent="1" vertex="1">
          <mxGeometry x="752" y="630" width="75" height="50" as="geometry" />
        </mxCell>
        <mxCell id="InkfnJQ6Ur_ESFkkAOH5-102" value="" style="endArrow=none;html=1;rounded=0;entryX=0.5;entryY=1;entryDx=0;entryDy=0;exitX=0.75;exitY=0;exitDx=0;exitDy=0;" parent="1" source="InkfnJQ6Ur_ESFkkAOH5-44" target="InkfnJQ6Ur_ESFkkAOH5-101" edge="1">
          <mxGeometry width="50" height="50" relative="1" as="geometry">
            <mxPoint x="486" y="684.96" as="sourcePoint" />
            <mxPoint x="1040" y="637.96" as="targetPoint" />
          </mxGeometry>
        </mxCell>
        <mxCell id="InkfnJQ6Ur_ESFkkAOH5-107" value="belong_to" style="rhombus;double=1;whiteSpace=wrap;html=1;" parent="1" vertex="1">
          <mxGeometry x="800" y="850" width="80" height="50" as="geometry" />
        </mxCell>
        <mxCell id="InkfnJQ6Ur_ESFkkAOH5-108" value="" style="endArrow=none;html=1;rounded=0;exitX=0;exitY=0;exitDx=0;exitDy=0;entryX=0.5;entryY=1;entryDx=0;entryDy=0;" parent="1" source="InkfnJQ6Ur_ESFkkAOH5-107" target="InkfnJQ6Ur_ESFkkAOH5-44" edge="1">
          <mxGeometry width="50" height="50" relative="1" as="geometry">
            <mxPoint x="860" y="875.46" as="sourcePoint" />
            <mxPoint x="910" y="825.46" as="targetPoint" />
          </mxGeometry>
        </mxCell>
        <mxCell id="InkfnJQ6Ur_ESFkkAOH5-109" value="&lt;font style=&quot;font-size: 21px;&quot;&gt;1&lt;/font&gt;" style="edgeLabel;html=1;align=center;verticalAlign=middle;resizable=0;points=[];" parent="InkfnJQ6Ur_ESFkkAOH5-108" vertex="1" connectable="0">
          <mxGeometry x="-0.1067" y="-1" relative="1" as="geometry">
            <mxPoint as="offset" />
          </mxGeometry>
        </mxCell>
        <mxCell id="InkfnJQ6Ur_ESFkkAOH5-110" value="" style="endArrow=none;html=1;rounded=0;exitX=1;exitY=1;exitDx=0;exitDy=0;entryX=0;entryY=0.25;entryDx=0;entryDy=0;shape=link;" parent="1" source="InkfnJQ6Ur_ESFkkAOH5-107" target="InkfnJQ6Ur_ESFkkAOH5-53" edge="1">
          <mxGeometry width="50" height="50" relative="1" as="geometry">
            <mxPoint x="820" y="877.96" as="sourcePoint" />
            <mxPoint x="870" y="827.96" as="targetPoint" />
          </mxGeometry>
        </mxCell>
        <mxCell id="InkfnJQ6Ur_ESFkkAOH5-111" value="&lt;font style=&quot;font-size: 21px;&quot;&gt;n&lt;/font&gt;" style="edgeLabel;html=1;align=center;verticalAlign=middle;resizable=0;points=[];" parent="InkfnJQ6Ur_ESFkkAOH5-110" vertex="1" connectable="0">
          <mxGeometry x="-0.3123" y="-1" relative="1" as="geometry">
            <mxPoint as="offset" />
          </mxGeometry>
        </mxCell>
        <mxCell id="InkfnJQ6Ur_ESFkkAOH5-112" value="offers" style="rhombus;double=1;&#xa;whiteSpace=wrap;html=1;" parent="1" vertex="1">
          <mxGeometry x="910" y="239.99999999999997" width="120" height="60" as="geometry" />
        </mxCell>
        <mxCell id="InkfnJQ6Ur_ESFkkAOH5-113" value="" style="endArrow=none;html=1;rounded=0;exitX=1;exitY=0.25;exitDx=0;exitDy=0;entryX=0;entryY=1;entryDx=0;entryDy=0;shape=link;" parent="1" source="InkfnJQ6Ur_ESFkkAOH5-1" target="InkfnJQ6Ur_ESFkkAOH5-112" edge="1">
          <mxGeometry width="50" height="50" relative="1" as="geometry">
            <mxPoint x="1020" y="417.96" as="sourcePoint" />
            <mxPoint x="970" y="167.96" as="targetPoint" />
          </mxGeometry>
        </mxCell>
        <mxCell id="InkfnJQ6Ur_ESFkkAOH5-114" value="&lt;font style=&quot;font-size: 21px;&quot;&gt;1&lt;/font&gt;" style="edgeLabel;html=1;align=center;verticalAlign=middle;resizable=0;points=[];" parent="InkfnJQ6Ur_ESFkkAOH5-113" vertex="1" connectable="0">
          <mxGeometry x="0.5292" y="-4" relative="1" as="geometry">
            <mxPoint as="offset" />
          </mxGeometry>
        </mxCell>
        <mxCell id="InkfnJQ6Ur_ESFkkAOH5-115" value="" style="endArrow=none;html=1;rounded=0;exitX=1;exitY=0;exitDx=0;exitDy=0;entryX=0;entryY=0.5;entryDx=0;entryDy=0;shape=link;" parent="1" source="InkfnJQ6Ur_ESFkkAOH5-112" target="InkfnJQ6Ur_ESFkkAOH5-78" edge="1">
          <mxGeometry width="50" height="50" relative="1" as="geometry">
            <mxPoint x="1489.28" y="280.46" as="sourcePoint" />
            <mxPoint x="1496.78" y="70.46000000000001" as="targetPoint" />
          </mxGeometry>
        </mxCell>
        <mxCell id="InkfnJQ6Ur_ESFkkAOH5-116" value="&lt;font style=&quot;font-size: 21px;&quot;&gt;m&lt;/font&gt;" style="edgeLabel;html=1;align=center;verticalAlign=middle;resizable=0;points=[];" parent="InkfnJQ6Ur_ESFkkAOH5-115" vertex="1" connectable="0">
          <mxGeometry x="0.6367" y="1" relative="1" as="geometry">
            <mxPoint as="offset" />
          </mxGeometry>
        </mxCell>
        <mxCell id="InkfnJQ6Ur_ESFkkAOH5-117" value="contains" style="rhombus;whiteSpace=wrap;html=1;" parent="1" vertex="1">
          <mxGeometry x="1130" y="620" width="80" height="50" as="geometry" />
        </mxCell>
        <mxCell id="InkfnJQ6Ur_ESFkkAOH5-118" value="" style="endArrow=none;html=1;rounded=0;exitX=0.75;exitY=0;exitDx=0;exitDy=0;entryX=0.5;entryY=1;entryDx=0;entryDy=0;shape=link;" parent="1" source="InkfnJQ6Ur_ESFkkAOH5-53" target="InkfnJQ6Ur_ESFkkAOH5-117" edge="1">
          <mxGeometry width="50" height="50" relative="1" as="geometry">
            <mxPoint x="1480" y="797.96" as="sourcePoint" />
            <mxPoint x="1530" y="747.96" as="targetPoint" />
          </mxGeometry>
        </mxCell>
        <mxCell id="InkfnJQ6Ur_ESFkkAOH5-119" value="&lt;font style=&quot;font-size: 21px;&quot;&gt;1&lt;/font&gt;" style="edgeLabel;html=1;align=center;verticalAlign=middle;resizable=0;points=[];" parent="InkfnJQ6Ur_ESFkkAOH5-118" vertex="1" connectable="0">
          <mxGeometry x="0.3925" y="3" relative="1" as="geometry">
            <mxPoint as="offset" />
          </mxGeometry>
        </mxCell>
        <mxCell id="InkfnJQ6Ur_ESFkkAOH5-120" value="" style="endArrow=none;html=1;rounded=0;exitX=0.25;exitY=1;exitDx=0;exitDy=0;entryX=0.5;entryY=0;entryDx=0;entryDy=0;shape=link;" parent="1" source="InkfnJQ6Ur_ESFkkAOH5-78" target="InkfnJQ6Ur_ESFkkAOH5-117" edge="1">
          <mxGeometry width="50" height="50" relative="1" as="geometry">
            <mxPoint x="1480" y="587.96" as="sourcePoint" />
            <mxPoint x="1530" y="537.96" as="targetPoint" />
          </mxGeometry>
        </mxCell>
        <mxCell id="InkfnJQ6Ur_ESFkkAOH5-121" value="&lt;font style=&quot;font-size: 21px;&quot;&gt;n&lt;/font&gt;" style="edgeLabel;html=1;align=center;verticalAlign=middle;resizable=0;points=[];" parent="InkfnJQ6Ur_ESFkkAOH5-120" vertex="1" connectable="0">
          <mxGeometry x="0.2332" y="5" relative="1" as="geometry">
            <mxPoint as="offset" />
          </mxGeometry>
        </mxCell>
        <mxCell id="InkfnJQ6Ur_ESFkkAOH5-122" value="employ" style="rhombus;whiteSpace=wrap;html=1;double=1;" parent="1" vertex="1">
          <mxGeometry x="625" y="210" width="80" height="50" as="geometry" />
        </mxCell>
        <mxCell id="InkfnJQ6Ur_ESFkkAOH5-123" value="" style="endArrow=none;html=1;rounded=0;exitX=0.5;exitY=0;exitDx=0;exitDy=0;entryX=0.5;entryY=1;entryDx=0;entryDy=0;shape=link;" parent="1" source="InkfnJQ6Ur_ESFkkAOH5-122" target="InkfnJQ6Ur_ESFkkAOH5-61" edge="1">
          <mxGeometry width="50" height="50" relative="1" as="geometry">
            <mxPoint x="690" y="367.96" as="sourcePoint" />
            <mxPoint x="600" y="197.96" as="targetPoint" />
          </mxGeometry>
        </mxCell>
        <mxCell id="InkfnJQ6Ur_ESFkkAOH5-124" value="&lt;font style=&quot;font-size: 21px;&quot;&gt;n&lt;/font&gt;" style="edgeLabel;html=1;align=center;verticalAlign=middle;resizable=0;points=[];" parent="InkfnJQ6Ur_ESFkkAOH5-123" vertex="1" connectable="0">
          <mxGeometry x="0.1697" y="-4" relative="1" as="geometry">
            <mxPoint as="offset" />
          </mxGeometry>
        </mxCell>
        <mxCell id="InkfnJQ6Ur_ESFkkAOH5-125" value="" style="endArrow=none;html=1;rounded=0;exitX=0.5;exitY=0;exitDx=0;exitDy=0;entryX=0.5;entryY=1;entryDx=0;entryDy=0;shape=link;" parent="1" source="InkfnJQ6Ur_ESFkkAOH5-1" target="InkfnJQ6Ur_ESFkkAOH5-122" edge="1">
          <mxGeometry width="50" height="50" relative="1" as="geometry">
            <mxPoint x="690" y="367.96" as="sourcePoint" />
            <mxPoint x="740" y="317.96" as="targetPoint" />
          </mxGeometry>
        </mxCell>
        <mxCell id="InkfnJQ6Ur_ESFkkAOH5-126" value="&lt;font style=&quot;font-size: 21px;&quot;&gt;1&lt;/font&gt;" style="edgeLabel;html=1;align=center;verticalAlign=middle;resizable=0;points=[];" parent="InkfnJQ6Ur_ESFkkAOH5-125" vertex="1" connectable="0">
          <mxGeometry x="0.1811" relative="1" as="geometry">
            <mxPoint as="offset" />
          </mxGeometry>
        </mxCell>
        <mxCell id="InkfnJQ6Ur_ESFkkAOH5-127" value="prepare" style="rhombus;whiteSpace=wrap;html=1;" parent="1" vertex="1">
          <mxGeometry x="880" y="70" width="80" height="40" as="geometry" />
        </mxCell>
        <mxCell id="InkfnJQ6Ur_ESFkkAOH5-128" value="" style="endArrow=none;html=1;rounded=0;exitX=1;exitY=0.5;exitDx=0;exitDy=0;entryX=0;entryY=0.5;entryDx=0;entryDy=0;shape=link;" parent="1" source="InkfnJQ6Ur_ESFkkAOH5-61" target="InkfnJQ6Ur_ESFkkAOH5-127" edge="1">
          <mxGeometry width="50" height="50" relative="1" as="geometry">
            <mxPoint x="840" y="207.96" as="sourcePoint" />
            <mxPoint x="890" y="157.96" as="targetPoint" />
          </mxGeometry>
        </mxCell>
        <mxCell id="InkfnJQ6Ur_ESFkkAOH5-129" value="&lt;font style=&quot;font-size: 21px;&quot;&gt;n&lt;/font&gt;" style="edgeLabel;html=1;align=center;verticalAlign=middle;resizable=0;points=[];" parent="InkfnJQ6Ur_ESFkkAOH5-128" vertex="1" connectable="0">
          <mxGeometry x="0.5454" y="1" relative="1" as="geometry">
            <mxPoint as="offset" />
          </mxGeometry>
        </mxCell>
        <mxCell id="InkfnJQ6Ur_ESFkkAOH5-130" value="" style="endArrow=none;html=1;rounded=0;exitX=1;exitY=0.5;exitDx=0;exitDy=0;entryX=0;entryY=0.25;entryDx=0;entryDy=0;shape=link;" parent="1" source="InkfnJQ6Ur_ESFkkAOH5-127" target="InkfnJQ6Ur_ESFkkAOH5-78" edge="1">
          <mxGeometry width="50" height="50" relative="1" as="geometry">
            <mxPoint x="1070" y="207.96" as="sourcePoint" />
            <mxPoint x="1260" y="207.96" as="targetPoint" />
          </mxGeometry>
        </mxCell>
        <mxCell id="InkfnJQ6Ur_ESFkkAOH5-131" value="&lt;font style=&quot;font-size: 21px;&quot;&gt;m&lt;/font&gt;" style="edgeLabel;html=1;align=center;verticalAlign=middle;resizable=0;points=[];" parent="InkfnJQ6Ur_ESFkkAOH5-130" vertex="1" connectable="0">
          <mxGeometry x="0.4151" y="2" relative="1" as="geometry">
            <mxPoint as="offset" />
          </mxGeometry>
        </mxCell>
        <mxCell id="InkfnJQ6Ur_ESFkkAOH5-132" value="deliver" style="rhombus;whiteSpace=wrap;html=1;" parent="1" vertex="1">
          <mxGeometry x="330" y="987.96" width="80" height="40" as="geometry" />
        </mxCell>
        <mxCell id="InkfnJQ6Ur_ESFkkAOH5-133" value="" style="endArrow=none;html=1;rounded=0;exitX=0.5;exitY=1;exitDx=0;exitDy=0;entryX=0.5;entryY=0;entryDx=0;entryDy=0;" parent="1" source="InkfnJQ6Ur_ESFkkAOH5-16" target="InkfnJQ6Ur_ESFkkAOH5-132" edge="1">
          <mxGeometry width="50" height="50" relative="1" as="geometry">
            <mxPoint x="1400" y="797.96" as="sourcePoint" />
            <mxPoint x="1450" y="747.96" as="targetPoint" />
          </mxGeometry>
        </mxCell>
        <mxCell id="InkfnJQ6Ur_ESFkkAOH5-134" value="&lt;font style=&quot;font-size: 21px;&quot;&gt;1&lt;/font&gt;" style="edgeLabel;html=1;align=center;verticalAlign=middle;resizable=0;points=[];" parent="InkfnJQ6Ur_ESFkkAOH5-133" vertex="1" connectable="0">
          <mxGeometry x="0.1235" y="1" relative="1" as="geometry">
            <mxPoint as="offset" />
          </mxGeometry>
        </mxCell>
        <mxCell id="InkfnJQ6Ur_ESFkkAOH5-135" value="" style="endArrow=none;html=1;rounded=0;exitX=0;exitY=0.75;exitDx=0;exitDy=0;shape=link;entryX=1;entryY=0.5;entryDx=0;entryDy=0;" parent="1" source="InkfnJQ6Ur_ESFkkAOH5-53" target="InkfnJQ6Ur_ESFkkAOH5-132" edge="1">
          <mxGeometry width="50" height="50" relative="1" as="geometry">
            <mxPoint x="1357.5" y="907.96" as="sourcePoint" />
            <mxPoint x="1410" y="807.96" as="targetPoint" />
          </mxGeometry>
        </mxCell>
        <mxCell id="InkfnJQ6Ur_ESFkkAOH5-136" value="&lt;font style=&quot;font-size: 21px;&quot;&gt;n&lt;/font&gt;" style="edgeLabel;html=1;align=center;verticalAlign=middle;resizable=0;points=[];" parent="InkfnJQ6Ur_ESFkkAOH5-135" vertex="1" connectable="0">
          <mxGeometry x="0.0021" y="-1" relative="1" as="geometry">
            <mxPoint as="offset" />
          </mxGeometry>
        </mxCell>
        <mxCell id="InkfnJQ6Ur_ESFkkAOH5-137" value="place" style="rhombus;whiteSpace=wrap;html=1;" parent="1" vertex="1">
          <mxGeometry x="1329.74" y="982.96" width="80" height="50" as="geometry" />
        </mxCell>
        <mxCell id="InkfnJQ6Ur_ESFkkAOH5-138" value="" style="endArrow=none;html=1;rounded=0;exitX=0.5;exitY=0;exitDx=0;exitDy=0;entryX=0.5;entryY=1;entryDx=0;entryDy=0;" parent="1" source="InkfnJQ6Ur_ESFkkAOH5-137" target="QQaLL_kAYIKGyKtvKJB6-43" edge="1">
          <mxGeometry width="50" height="50" relative="1" as="geometry">
            <mxPoint x="1029.74" y="817.96" as="sourcePoint" />
            <mxPoint x="1369.7399999999998" y="830.46" as="targetPoint" />
          </mxGeometry>
        </mxCell>
        <mxCell id="InkfnJQ6Ur_ESFkkAOH5-139" value="&lt;font style=&quot;font-size: 21px;&quot;&gt;1&lt;/font&gt;" style="edgeLabel;html=1;align=center;verticalAlign=middle;resizable=0;points=[];" parent="InkfnJQ6Ur_ESFkkAOH5-138" vertex="1" connectable="0">
          <mxGeometry x="-0.4373" relative="1" as="geometry">
            <mxPoint y="-1" as="offset" />
          </mxGeometry>
        </mxCell>
        <mxCell id="InkfnJQ6Ur_ESFkkAOH5-140" value="" style="endArrow=none;html=1;rounded=0;exitX=1;exitY=0.75;exitDx=0;exitDy=0;entryX=0;entryY=0.5;entryDx=0;entryDy=0;shape=link;" parent="1" target="InkfnJQ6Ur_ESFkkAOH5-137" edge="1">
          <mxGeometry width="50" height="50" relative="1" as="geometry">
            <mxPoint x="1109.9999999999998" y="1008.98" as="sourcePoint" />
            <mxPoint x="1477.49" y="1006.94" as="targetPoint" />
          </mxGeometry>
        </mxCell>
        <mxCell id="InkfnJQ6Ur_ESFkkAOH5-141" value="&lt;font style=&quot;font-size: 21px;&quot;&gt;m&lt;/font&gt;" style="edgeLabel;html=1;align=center;verticalAlign=middle;resizable=0;points=[];" parent="InkfnJQ6Ur_ESFkkAOH5-140" vertex="1" connectable="0">
          <mxGeometry x="0.7516" relative="1" as="geometry">
            <mxPoint x="-1" as="offset" />
          </mxGeometry>
        </mxCell>
        <mxCell id="InkfnJQ6Ur_ESFkkAOH5-142" value="Display" style="rhombus;whiteSpace=wrap;html=1;" parent="1" vertex="1">
          <mxGeometry x="1030" y="360" width="90" height="60" as="geometry" />
        </mxCell>
        <mxCell id="InkfnJQ6Ur_ESFkkAOH5-143" value="" style="endArrow=none;html=1;rounded=0;exitX=1;exitY=0.5;exitDx=0;exitDy=0;entryX=0;entryY=1;entryDx=0;entryDy=0;" parent="1" source="InkfnJQ6Ur_ESFkkAOH5-44" target="InkfnJQ6Ur_ESFkkAOH5-142" edge="1">
          <mxGeometry width="50" height="50" relative="1" as="geometry">
            <mxPoint x="1130" y="677.96" as="sourcePoint" />
            <mxPoint x="1180" y="627.96" as="targetPoint" />
          </mxGeometry>
        </mxCell>
        <mxCell id="InkfnJQ6Ur_ESFkkAOH5-144" value="&lt;font style=&quot;font-size: 21px;&quot;&gt;n&lt;/font&gt;" style="edgeLabel;html=1;align=center;verticalAlign=middle;resizable=0;points=[];" parent="InkfnJQ6Ur_ESFkkAOH5-143" vertex="1" connectable="0">
          <mxGeometry x="-0.371" y="5" relative="1" as="geometry">
            <mxPoint x="-1" as="offset" />
          </mxGeometry>
        </mxCell>
        <mxCell id="InkfnJQ6Ur_ESFkkAOH5-145" value="" style="endArrow=none;html=1;rounded=0;exitX=1;exitY=0;exitDx=0;exitDy=0;entryX=0;entryY=0.75;entryDx=0;entryDy=0;shape=link;" parent="1" source="InkfnJQ6Ur_ESFkkAOH5-142" target="InkfnJQ6Ur_ESFkkAOH5-78" edge="1">
          <mxGeometry width="50" height="50" relative="1" as="geometry">
            <mxPoint x="1130" y="497.96" as="sourcePoint" />
            <mxPoint x="1310" y="227.96" as="targetPoint" />
          </mxGeometry>
        </mxCell>
        <mxCell id="InkfnJQ6Ur_ESFkkAOH5-146" value="&lt;font style=&quot;font-size: 21px;&quot;&gt;m&lt;/font&gt;" style="edgeLabel;html=1;align=center;verticalAlign=middle;resizable=0;points=[];" parent="InkfnJQ6Ur_ESFkkAOH5-145" vertex="1" connectable="0">
          <mxGeometry x="-0.5775" y="-1" relative="1" as="geometry">
            <mxPoint y="-1" as="offset" />
          </mxGeometry>
        </mxCell>
        <mxCell id="InkfnJQ6Ur_ESFkkAOH5-147" value="" style="endArrow=none;html=1;rounded=0;exitX=0;exitY=0.5;exitDx=0;exitDy=0;entryX=1.001;entryY=0.49;entryDx=0;entryDy=0;entryPerimeter=0;shape=link;" parent="1" source="InkfnJQ6Ur_ESFkkAOH5-1" target="InkfnJQ6Ur_ESFkkAOH5-70" edge="1">
          <mxGeometry width="50" height="50" relative="1" as="geometry">
            <mxPoint x="870" y="587.96" as="sourcePoint" />
            <mxPoint x="920" y="537.96" as="targetPoint" />
          </mxGeometry>
        </mxCell>
        <mxCell id="InkfnJQ6Ur_ESFkkAOH5-148" value="&lt;font style=&quot;font-size: 21px;&quot;&gt;n&lt;/font&gt;" style="edgeLabel;html=1;align=center;verticalAlign=middle;resizable=0;points=[];" parent="InkfnJQ6Ur_ESFkkAOH5-147" vertex="1" connectable="0">
          <mxGeometry x="0.2955" y="-2" relative="1" as="geometry">
            <mxPoint as="offset" />
          </mxGeometry>
        </mxCell>
        <mxCell id="QQaLL_kAYIKGyKtvKJB6-21" style="rounded=0;orthogonalLoop=1;jettySize=auto;html=1;entryX=0.5;entryY=1;entryDx=0;entryDy=0;endArrow=none;startFill=0;" edge="1" parent="1" source="InkfnJQ6Ur_ESFkkAOH5-153" target="InkfnJQ6Ur_ESFkkAOH5-78">
          <mxGeometry relative="1" as="geometry">
            <mxPoint x="1360" y="140" as="targetPoint" />
          </mxGeometry>
        </mxCell>
        <mxCell id="InkfnJQ6Ur_ESFkkAOH5-153" value="&lt;span style=&quot;border-bottom-width: 1px; border-bottom-style: dotted; border-bottom-color: currentcolor;&quot;&gt;food_id&lt;/span&gt;" style="ellipse;whiteSpace=wrap;html=1;align=center;" parent="1" vertex="1">
          <mxGeometry x="1290" y="210" width="100" height="40" as="geometry" />
        </mxCell>
        <mxCell id="QQaLL_kAYIKGyKtvKJB6-2" value="open hour" style="ellipse;whiteSpace=wrap;html=1;" vertex="1" parent="1">
          <mxGeometry x="500" y="260" width="75" height="50" as="geometry" />
        </mxCell>
        <mxCell id="QQaLL_kAYIKGyKtvKJB6-3" value="" style="endArrow=none;html=1;rounded=0;exitX=0.5;exitY=1;exitDx=0;exitDy=0;entryX=0.25;entryY=0;entryDx=0;entryDy=0;" edge="1" parent="1" source="QQaLL_kAYIKGyKtvKJB6-2" target="InkfnJQ6Ur_ESFkkAOH5-1">
          <mxGeometry width="50" height="50" relative="1" as="geometry">
            <mxPoint x="610" y="340.46" as="sourcePoint" />
            <mxPoint x="599.67" y="310.46" as="targetPoint" />
          </mxGeometry>
        </mxCell>
        <mxCell id="QQaLL_kAYIKGyKtvKJB6-4" value="open time" style="ellipse;whiteSpace=wrap;html=1;" vertex="1" parent="1">
          <mxGeometry x="450" y="179.99999999999997" width="75" height="50" as="geometry" />
        </mxCell>
        <mxCell id="QQaLL_kAYIKGyKtvKJB6-5" value="close time" style="ellipse;whiteSpace=wrap;html=1;" vertex="1" parent="1">
          <mxGeometry x="550" y="180" width="75" height="50" as="geometry" />
        </mxCell>
        <mxCell id="QQaLL_kAYIKGyKtvKJB6-6" value="" style="endArrow=none;html=1;rounded=0;exitX=0.5;exitY=1;exitDx=0;exitDy=0;entryX=0.5;entryY=0;entryDx=0;entryDy=0;" edge="1" parent="1" source="QQaLL_kAYIKGyKtvKJB6-4" target="QQaLL_kAYIKGyKtvKJB6-2">
          <mxGeometry width="50" height="50" relative="1" as="geometry">
            <mxPoint x="490" y="340.46" as="sourcePoint" />
            <mxPoint x="540" y="290.46" as="targetPoint" />
          </mxGeometry>
        </mxCell>
        <mxCell id="QQaLL_kAYIKGyKtvKJB6-7" value="" style="endArrow=none;html=1;rounded=0;exitX=0.5;exitY=1;exitDx=0;exitDy=0;entryX=0.5;entryY=0;entryDx=0;entryDy=0;" edge="1" parent="1" source="QQaLL_kAYIKGyKtvKJB6-5" target="QQaLL_kAYIKGyKtvKJB6-2">
          <mxGeometry width="50" height="50" relative="1" as="geometry">
            <mxPoint x="490" y="340.46" as="sourcePoint" />
            <mxPoint x="532" y="285" as="targetPoint" />
          </mxGeometry>
        </mxCell>
        <mxCell id="QQaLL_kAYIKGyKtvKJB6-8" value="cuisine type" style="ellipse;whiteSpace=wrap;html=1;" vertex="1" parent="1">
          <mxGeometry x="465" y="327.96" width="75" height="50" as="geometry" />
        </mxCell>
        <mxCell id="QQaLL_kAYIKGyKtvKJB6-9" value="" style="endArrow=none;html=1;rounded=0;exitX=1;exitY=0.5;exitDx=0;exitDy=0;entryX=0;entryY=0.25;entryDx=0;entryDy=0;" edge="1" parent="1" source="QQaLL_kAYIKGyKtvKJB6-8" target="InkfnJQ6Ur_ESFkkAOH5-1">
          <mxGeometry width="50" height="50" relative="1" as="geometry">
            <mxPoint x="620" y="380.46" as="sourcePoint" />
            <mxPoint x="599.67" y="320.46" as="targetPoint" />
          </mxGeometry>
        </mxCell>
        <mxCell id="QQaLL_kAYIKGyKtvKJB6-10" value="&lt;u&gt;restaurant_id&lt;/u&gt;" style="ellipse;whiteSpace=wrap;html=1;" vertex="1" parent="1">
          <mxGeometry x="780" y="450" width="75" height="50" as="geometry" />
        </mxCell>
        <mxCell id="QQaLL_kAYIKGyKtvKJB6-11" value="" style="endArrow=none;html=1;rounded=0;entryX=0;entryY=0;entryDx=0;entryDy=0;exitX=1;exitY=0.75;exitDx=0;exitDy=0;" edge="1" parent="1" target="QQaLL_kAYIKGyKtvKJB6-10" source="InkfnJQ6Ur_ESFkkAOH5-1">
          <mxGeometry width="50" height="50" relative="1" as="geometry">
            <mxPoint x="789.67" y="382.96000000000004" as="sourcePoint" />
            <mxPoint x="870" y="422.96000000000004" as="targetPoint" />
          </mxGeometry>
        </mxCell>
        <mxCell id="QQaLL_kAYIKGyKtvKJB6-12" value="name" style="ellipse;whiteSpace=wrap;html=1;" vertex="1" parent="1">
          <mxGeometry x="694.9999999999999" y="260" width="75" height="50" as="geometry" />
        </mxCell>
        <mxCell id="QQaLL_kAYIKGyKtvKJB6-13" value="location" style="ellipse;whiteSpace=wrap;html=1;" vertex="1" parent="1">
          <mxGeometry x="780" y="387.96000000000004" width="75" height="50" as="geometry" />
        </mxCell>
        <mxCell id="QQaLL_kAYIKGyKtvKJB6-14" value="" style="endArrow=none;html=1;rounded=0;entryX=0.5;entryY=1;entryDx=0;entryDy=0;exitX=0.75;exitY=0;exitDx=0;exitDy=0;" edge="1" parent="1" target="QQaLL_kAYIKGyKtvKJB6-12" source="InkfnJQ6Ur_ESFkkAOH5-1">
          <mxGeometry width="50" height="50" relative="1" as="geometry">
            <mxPoint x="752.67" y="381.96000000000004" as="sourcePoint" />
            <mxPoint x="820" y="342.96000000000004" as="targetPoint" />
          </mxGeometry>
        </mxCell>
        <mxCell id="QQaLL_kAYIKGyKtvKJB6-15" value="" style="endArrow=none;html=1;rounded=0;entryX=0;entryY=0.5;entryDx=0;entryDy=0;exitX=1;exitY=0.5;exitDx=0;exitDy=0;" edge="1" parent="1" target="QQaLL_kAYIKGyKtvKJB6-13" source="InkfnJQ6Ur_ESFkkAOH5-1">
          <mxGeometry width="50" height="50" relative="1" as="geometry">
            <mxPoint x="759.67" y="382.96000000000004" as="sourcePoint" />
            <mxPoint x="800.9834957055033" y="316.63766952966455" as="targetPoint" />
          </mxGeometry>
        </mxCell>
        <mxCell id="QQaLL_kAYIKGyKtvKJB6-19" value="&lt;span style=&quot;border-bottom-width: 1px; border-bottom-style: dotted; border-bottom-color: currentcolor;&quot;&gt;chef_id&lt;/span&gt;" style="ellipse;whiteSpace=wrap;html=1;align=center;" vertex="1" parent="1">
          <mxGeometry x="467.5" y="60" width="100" height="60" as="geometry" />
        </mxCell>
        <mxCell id="QQaLL_kAYIKGyKtvKJB6-20" value="" style="endArrow=none;html=1;rounded=0;exitX=1;exitY=0.5;exitDx=0;exitDy=0;entryX=0;entryY=0.5;entryDx=0;entryDy=0;" edge="1" parent="1" source="QQaLL_kAYIKGyKtvKJB6-19" target="InkfnJQ6Ur_ESFkkAOH5-61">
          <mxGeometry width="50" height="50" relative="1" as="geometry">
            <mxPoint x="660" y="210" as="sourcePoint" />
            <mxPoint x="710" y="160" as="targetPoint" />
          </mxGeometry>
        </mxCell>
        <mxCell id="QQaLL_kAYIKGyKtvKJB6-22" value="&lt;u&gt;deliver_id&lt;/u&gt;" style="ellipse;whiteSpace=wrap;html=1;" vertex="1" parent="1">
          <mxGeometry x="450" y="800" width="75" height="50" as="geometry" />
        </mxCell>
        <mxCell id="QQaLL_kAYIKGyKtvKJB6-23" value="" style="endArrow=none;html=1;rounded=0;entryX=0;entryY=0;entryDx=0;entryDy=0;exitX=1;exitY=0.75;exitDx=0;exitDy=0;" edge="1" parent="1" target="QQaLL_kAYIKGyKtvKJB6-22" source="InkfnJQ6Ur_ESFkkAOH5-16">
          <mxGeometry width="50" height="50" relative="1" as="geometry">
            <mxPoint x="545.41" y="905.44" as="sourcePoint" />
            <mxPoint x="577.5" y="955" as="targetPoint" />
          </mxGeometry>
        </mxCell>
        <mxCell id="QQaLL_kAYIKGyKtvKJB6-24" value="name" style="ellipse;whiteSpace=wrap;html=1;" vertex="1" parent="1">
          <mxGeometry x="270" y="655.46" width="75" height="50" as="geometry" />
        </mxCell>
        <mxCell id="QQaLL_kAYIKGyKtvKJB6-25" value="phone number" style="ellipse;whiteSpace=wrap;html=1;" vertex="1" parent="1">
          <mxGeometry x="390" y="655.46" width="75" height="50" as="geometry" />
        </mxCell>
        <mxCell id="QQaLL_kAYIKGyKtvKJB6-26" value="" style="endArrow=none;html=1;rounded=0;entryX=0.5;entryY=1;entryDx=0;entryDy=0;exitX=0.25;exitY=0;exitDx=0;exitDy=0;" edge="1" parent="1" target="QQaLL_kAYIKGyKtvKJB6-24" source="InkfnJQ6Ur_ESFkkAOH5-16">
          <mxGeometry width="50" height="50" relative="1" as="geometry">
            <mxPoint x="352.90999999999997" y="755.44" as="sourcePoint" />
            <mxPoint x="385" y="725" as="targetPoint" />
          </mxGeometry>
        </mxCell>
        <mxCell id="QQaLL_kAYIKGyKtvKJB6-27" value="" style="endArrow=none;html=1;rounded=0;entryX=0.5;entryY=1;entryDx=0;entryDy=0;" edge="1" parent="1" target="QQaLL_kAYIKGyKtvKJB6-25" source="InkfnJQ6Ur_ESFkkAOH5-16">
          <mxGeometry width="50" height="50" relative="1" as="geometry">
            <mxPoint x="515.41" y="905.44" as="sourcePoint" />
            <mxPoint x="508.4834957055033" y="848.6776695296646" as="targetPoint" />
          </mxGeometry>
        </mxCell>
        <mxCell id="QQaLL_kAYIKGyKtvKJB6-28" value="" style="endArrow=none;html=1;rounded=0;exitX=1;exitY=0;exitDx=0;exitDy=0;entryX=0.25;entryY=1;entryDx=0;entryDy=0;" edge="1" parent="1" source="QQaLL_kAYIKGyKtvKJB6-31" target="InkfnJQ6Ur_ESFkkAOH5-16">
          <mxGeometry width="50" height="50" relative="1" as="geometry">
            <mxPoint x="372.5" y="945" as="sourcePoint" />
            <mxPoint x="575" y="935" as="targetPoint" />
          </mxGeometry>
        </mxCell>
        <mxCell id="QQaLL_kAYIKGyKtvKJB6-29" value="vehicle type" style="ellipse;whiteSpace=wrap;html=1;" vertex="1" parent="1">
          <mxGeometry x="180" y="740.46" width="75" height="50" as="geometry" />
        </mxCell>
        <mxCell id="QQaLL_kAYIKGyKtvKJB6-30" value="" style="endArrow=none;html=1;rounded=0;exitX=1;exitY=0.5;exitDx=0;exitDy=0;entryX=0;entryY=0.5;entryDx=0;entryDy=0;" edge="1" parent="1" source="QQaLL_kAYIKGyKtvKJB6-29" target="InkfnJQ6Ur_ESFkkAOH5-16">
          <mxGeometry width="50" height="50" relative="1" as="geometry">
            <mxPoint x="427.5" y="1015" as="sourcePoint" />
            <mxPoint x="575.41" y="950.44" as="targetPoint" />
          </mxGeometry>
        </mxCell>
        <mxCell id="QQaLL_kAYIKGyKtvKJB6-31" value="spoke language" style="ellipse;shape=doubleEllipse;whiteSpace=wrap;html=1;" vertex="1" parent="1">
          <mxGeometry x="213.32999999999998" y="810" width="100" height="60" as="geometry" />
        </mxCell>
        <mxCell id="QQaLL_kAYIKGyKtvKJB6-33" value="&lt;u&gt;platform_id&lt;/u&gt;" style="ellipse;whiteSpace=wrap;html=1;" vertex="1" parent="1">
          <mxGeometry x="827" y="750" width="75" height="50" as="geometry" />
        </mxCell>
        <mxCell id="QQaLL_kAYIKGyKtvKJB6-34" value="" style="endArrow=none;html=1;rounded=0;entryX=0;entryY=0.5;entryDx=0;entryDy=0;exitX=0.999;exitY=0.679;exitDx=0;exitDy=0;exitPerimeter=0;" edge="1" parent="1" target="QQaLL_kAYIKGyKtvKJB6-33" source="InkfnJQ6Ur_ESFkkAOH5-44">
          <mxGeometry width="50" height="50" relative="1" as="geometry">
            <mxPoint x="690" y="741" as="sourcePoint" />
            <mxPoint x="722.5" y="790.46" as="targetPoint" />
          </mxGeometry>
        </mxCell>
        <mxCell id="QQaLL_kAYIKGyKtvKJB6-35" value="name" style="ellipse;whiteSpace=wrap;html=1;" vertex="1" parent="1">
          <mxGeometry x="567.5" y="680" width="75" height="50" as="geometry" />
        </mxCell>
        <mxCell id="QQaLL_kAYIKGyKtvKJB6-36" value="website" style="ellipse;whiteSpace=wrap;html=1;" vertex="1" parent="1">
          <mxGeometry x="625" y="820" width="75" height="50" as="geometry" />
        </mxCell>
        <mxCell id="QQaLL_kAYIKGyKtvKJB6-37" value="" style="endArrow=none;html=1;rounded=0;entryX=0.5;entryY=1;entryDx=0;entryDy=0;exitX=0;exitY=0.25;exitDx=0;exitDy=0;" edge="1" parent="1" target="QQaLL_kAYIKGyKtvKJB6-35" source="InkfnJQ6Ur_ESFkkAOH5-44">
          <mxGeometry width="50" height="50" relative="1" as="geometry">
            <mxPoint x="641.24" y="745.9200000000001" as="sourcePoint" />
            <mxPoint x="672.5" y="710.46" as="targetPoint" />
          </mxGeometry>
        </mxCell>
        <mxCell id="QQaLL_kAYIKGyKtvKJB6-38" value="" style="endArrow=none;html=1;rounded=0;entryX=0.5;entryY=0;entryDx=0;entryDy=0;exitX=0.25;exitY=1;exitDx=0;exitDy=0;" edge="1" parent="1" target="QQaLL_kAYIKGyKtvKJB6-36" source="InkfnJQ6Ur_ESFkkAOH5-44">
          <mxGeometry width="50" height="50" relative="1" as="geometry">
            <mxPoint x="660" y="741" as="sourcePoint" />
            <mxPoint x="653.4834957055033" y="684.1376695296645" as="targetPoint" />
          </mxGeometry>
        </mxCell>
        <mxCell id="QQaLL_kAYIKGyKtvKJB6-39" value="name" style="ellipse;whiteSpace=wrap;html=1;" vertex="1" parent="1">
          <mxGeometry x="540" y="-9.999999999999993" width="75" height="50" as="geometry" />
        </mxCell>
        <mxCell id="QQaLL_kAYIKGyKtvKJB6-40" value="phone_number" style="ellipse;whiteSpace=wrap;html=1;" vertex="1" parent="1">
          <mxGeometry x="667.5" y="-20" width="102.5" height="60" as="geometry" />
        </mxCell>
        <mxCell id="QQaLL_kAYIKGyKtvKJB6-41" value="" style="endArrow=none;html=1;rounded=0;entryX=1;entryY=1;entryDx=0;entryDy=0;exitX=0.25;exitY=0;exitDx=0;exitDy=0;" edge="1" parent="1" target="QQaLL_kAYIKGyKtvKJB6-39" source="InkfnJQ6Ur_ESFkkAOH5-61">
          <mxGeometry width="50" height="50" relative="1" as="geometry">
            <mxPoint x="225" y="102" as="sourcePoint" />
            <mxPoint x="257.91" y="72.04" as="targetPoint" />
          </mxGeometry>
        </mxCell>
        <mxCell id="QQaLL_kAYIKGyKtvKJB6-42" value="" style="endArrow=none;html=1;rounded=0;entryX=0.5;entryY=1;entryDx=0;entryDy=0;exitX=0.75;exitY=0;exitDx=0;exitDy=0;" edge="1" parent="1" target="QQaLL_kAYIKGyKtvKJB6-40" source="InkfnJQ6Ur_ESFkkAOH5-61">
          <mxGeometry width="50" height="50" relative="1" as="geometry">
            <mxPoint x="245" y="102" as="sourcePoint" />
            <mxPoint x="238.89349570550317" y="45.71766952966452" as="targetPoint" />
          </mxGeometry>
        </mxCell>
        <mxCell id="QQaLL_kAYIKGyKtvKJB6-43" value="Customer" style="rounded=0;whiteSpace=wrap;html=1;" vertex="1" parent="1">
          <mxGeometry x="1310" y="722.52" width="120" height="60" as="geometry" />
        </mxCell>
        <mxCell id="QQaLL_kAYIKGyKtvKJB6-44" value="&lt;u&gt;customer_id&lt;/u&gt;" style="ellipse;whiteSpace=wrap;html=1;" vertex="1" parent="1">
          <mxGeometry x="1420" y="637.52" width="75" height="50" as="geometry" />
        </mxCell>
        <mxCell id="QQaLL_kAYIKGyKtvKJB6-45" value="" style="endArrow=none;html=1;rounded=0;entryX=0.5;entryY=1;entryDx=0;entryDy=0;exitX=1;exitY=0.25;exitDx=0;exitDy=0;" edge="1" parent="1" source="QQaLL_kAYIKGyKtvKJB6-43" target="QQaLL_kAYIKGyKtvKJB6-44">
          <mxGeometry width="50" height="50" relative="1" as="geometry">
            <mxPoint x="1292.5" y="732.52" as="sourcePoint" />
            <mxPoint x="1432.5" y="772.52" as="targetPoint" />
          </mxGeometry>
        </mxCell>
        <mxCell id="QQaLL_kAYIKGyKtvKJB6-46" value="name" style="ellipse;whiteSpace=wrap;html=1;" vertex="1" parent="1">
          <mxGeometry x="1250" y="637.52" width="75" height="50" as="geometry" />
        </mxCell>
        <mxCell id="QQaLL_kAYIKGyKtvKJB6-47" value="phone number" style="ellipse;whiteSpace=wrap;html=1;" vertex="1" parent="1">
          <mxGeometry x="1332.5" y="630" width="75" height="50" as="geometry" />
        </mxCell>
        <mxCell id="QQaLL_kAYIKGyKtvKJB6-48" value="" style="endArrow=none;html=1;rounded=0;entryX=0.5;entryY=1;entryDx=0;entryDy=0;exitX=0.333;exitY=0;exitDx=0;exitDy=0;exitPerimeter=0;" edge="1" parent="1" source="QQaLL_kAYIKGyKtvKJB6-43" target="QQaLL_kAYIKGyKtvKJB6-46">
          <mxGeometry width="50" height="50" relative="1" as="geometry">
            <mxPoint x="1332.5" y="742.52" as="sourcePoint" />
            <mxPoint x="1382.5" y="692.52" as="targetPoint" />
          </mxGeometry>
        </mxCell>
        <mxCell id="QQaLL_kAYIKGyKtvKJB6-49" value="" style="endArrow=none;html=1;rounded=0;entryX=0.5;entryY=1;entryDx=0;entryDy=0;exitX=0.5;exitY=0;exitDx=0;exitDy=0;" edge="1" parent="1" source="QQaLL_kAYIKGyKtvKJB6-43" target="QQaLL_kAYIKGyKtvKJB6-47">
          <mxGeometry width="50" height="50" relative="1" as="geometry">
            <mxPoint x="1332.5" y="743.52" as="sourcePoint" />
            <mxPoint x="1363.4834957055032" y="666.1976695296646" as="targetPoint" />
          </mxGeometry>
        </mxCell>
        <mxCell id="QQaLL_kAYIKGyKtvKJB6-50" value="" style="endArrow=none;html=1;rounded=0;exitX=1;exitY=0.5;exitDx=0;exitDy=0;entryX=1;entryY=0.5;entryDx=0;entryDy=0;" edge="1" parent="1" source="QQaLL_kAYIKGyKtvKJB6-53" target="QQaLL_kAYIKGyKtvKJB6-43">
          <mxGeometry width="50" height="50" relative="1" as="geometry">
            <mxPoint x="1227.5" y="762.52" as="sourcePoint" />
            <mxPoint x="1322.5" y="742.52" as="targetPoint" />
          </mxGeometry>
        </mxCell>
        <mxCell id="QQaLL_kAYIKGyKtvKJB6-51" value="address" style="ellipse;whiteSpace=wrap;html=1;" vertex="1" parent="1">
          <mxGeometry x="1450" y="782.52" width="75" height="50" as="geometry" />
        </mxCell>
        <mxCell id="QQaLL_kAYIKGyKtvKJB6-52" value="" style="endArrow=none;html=1;rounded=0;exitX=0;exitY=0;exitDx=0;exitDy=0;entryX=1;entryY=0.75;entryDx=0;entryDy=0;" edge="1" parent="1" source="QQaLL_kAYIKGyKtvKJB6-51" target="QQaLL_kAYIKGyKtvKJB6-43">
          <mxGeometry width="50" height="50" relative="1" as="geometry">
            <mxPoint x="1282.5" y="832.52" as="sourcePoint" />
            <mxPoint x="1332.5" y="782.52" as="targetPoint" />
          </mxGeometry>
        </mxCell>
        <mxCell id="QQaLL_kAYIKGyKtvKJB6-53" value="payment_method" style="ellipse;shape=doubleEllipse;whiteSpace=wrap;html=1;" vertex="1" parent="1">
          <mxGeometry x="1480" y="687.52" width="117.5" height="65" as="geometry" />
        </mxCell>
        <mxCell id="QQaLL_kAYIKGyKtvKJB6-54" value="country" style="ellipse;whiteSpace=wrap;html=1;" vertex="1" parent="1">
          <mxGeometry x="1409.74" y="850" width="75" height="50" as="geometry" />
        </mxCell>
        <mxCell id="QQaLL_kAYIKGyKtvKJB6-55" value="city" style="ellipse;whiteSpace=wrap;html=1;" vertex="1" parent="1">
          <mxGeometry x="1495" y="850" width="75" height="50" as="geometry" />
        </mxCell>
        <mxCell id="QQaLL_kAYIKGyKtvKJB6-56" value="postcode" style="ellipse;whiteSpace=wrap;html=1;" vertex="1" parent="1">
          <mxGeometry x="1557.5" y="782.52" width="75" height="50" as="geometry" />
        </mxCell>
        <mxCell id="QQaLL_kAYIKGyKtvKJB6-57" value="" style="endArrow=none;html=1;rounded=0;exitX=0.5;exitY=0;exitDx=0;exitDy=0;entryX=0;entryY=1;entryDx=0;entryDy=0;" edge="1" parent="1" source="QQaLL_kAYIKGyKtvKJB6-54" target="QQaLL_kAYIKGyKtvKJB6-51">
          <mxGeometry width="50" height="50" relative="1" as="geometry">
            <mxPoint x="1477.5" y="802.52" as="sourcePoint" />
            <mxPoint x="1527.5" y="752.52" as="targetPoint" />
          </mxGeometry>
        </mxCell>
        <mxCell id="QQaLL_kAYIKGyKtvKJB6-58" value="" style="endArrow=none;html=1;rounded=0;exitX=0.5;exitY=0;exitDx=0;exitDy=0;entryX=1;entryY=1;entryDx=0;entryDy=0;" edge="1" parent="1" source="QQaLL_kAYIKGyKtvKJB6-55" target="QQaLL_kAYIKGyKtvKJB6-51">
          <mxGeometry width="50" height="50" relative="1" as="geometry">
            <mxPoint x="1477.5" y="802.52" as="sourcePoint" />
            <mxPoint x="1527.5" y="752.52" as="targetPoint" />
          </mxGeometry>
        </mxCell>
        <mxCell id="QQaLL_kAYIKGyKtvKJB6-59" value="" style="endArrow=none;html=1;rounded=0;exitX=1;exitY=0.5;exitDx=0;exitDy=0;entryX=0;entryY=0.5;entryDx=0;entryDy=0;" edge="1" parent="1" source="QQaLL_kAYIKGyKtvKJB6-51" target="QQaLL_kAYIKGyKtvKJB6-56">
          <mxGeometry width="50" height="50" relative="1" as="geometry">
            <mxPoint x="1477.5" y="802.52" as="sourcePoint" />
            <mxPoint x="1527.5" y="752.52" as="targetPoint" />
          </mxGeometry>
        </mxCell>
        <mxCell id="QQaLL_kAYIKGyKtvKJB6-62" value="" style="endArrow=none;html=1;rounded=0;entryX=0;entryY=0;entryDx=0;entryDy=0;exitX=0.75;exitY=1;exitDx=0;exitDy=0;" edge="1" parent="1" target="QQaLL_kAYIKGyKtvKJB6-73" source="InkfnJQ6Ur_ESFkkAOH5-53">
          <mxGeometry width="50" height="50" relative="1" as="geometry">
            <mxPoint x="875" y="1060" as="sourcePoint" />
            <mxPoint x="1146.1106709988117" y="1057.237951633815" as="targetPoint" />
          </mxGeometry>
        </mxCell>
        <mxCell id="QQaLL_kAYIKGyKtvKJB6-63" value="timestamp" style="ellipse;whiteSpace=wrap;html=1;" vertex="1" parent="1">
          <mxGeometry x="1332.5" y="1070" width="75" height="50" as="geometry" />
        </mxCell>
        <mxCell id="QQaLL_kAYIKGyKtvKJB6-64" value="total_price" style="ellipse;whiteSpace=wrap;html=1;dashed=1;dashPattern=8 8;" vertex="1" parent="1">
          <mxGeometry x="955" y="1060" width="75" height="50" as="geometry" />
        </mxCell>
        <mxCell id="QQaLL_kAYIKGyKtvKJB6-65" value="" style="endArrow=none;html=1;rounded=0;entryX=0.5;entryY=0;entryDx=0;entryDy=0;exitX=0.5;exitY=1;exitDx=0;exitDy=0;" edge="1" parent="1" target="QQaLL_kAYIKGyKtvKJB6-63" source="InkfnJQ6Ur_ESFkkAOH5-137">
          <mxGeometry width="50" height="50" relative="1" as="geometry">
            <mxPoint x="1120" y="690" as="sourcePoint" />
            <mxPoint x="857.61" y="970" as="targetPoint" />
          </mxGeometry>
        </mxCell>
        <mxCell id="QQaLL_kAYIKGyKtvKJB6-66" value="" style="endArrow=none;html=1;rounded=0;entryX=0.5;entryY=0;entryDx=0;entryDy=0;exitX=0.5;exitY=1;exitDx=0;exitDy=0;" edge="1" parent="1" target="QQaLL_kAYIKGyKtvKJB6-64" source="InkfnJQ6Ur_ESFkkAOH5-53">
          <mxGeometry width="50" height="50" relative="1" as="geometry">
            <mxPoint x="845" y="1060" as="sourcePoint" />
            <mxPoint x="838.5934957055032" y="943.6776695296645" as="targetPoint" />
          </mxGeometry>
        </mxCell>
        <mxCell id="QQaLL_kAYIKGyKtvKJB6-73" value="&lt;span style=&quot;border-bottom-width: 1px; border-bottom-style: dotted; border-bottom-color: currentcolor;&quot;&gt;order_id&lt;/span&gt;" style="ellipse;whiteSpace=wrap;html=1;align=center;" vertex="1" parent="1">
          <mxGeometry x="1120" y="1060" width="80" height="40" as="geometry" />
        </mxCell>
        <mxCell id="QQaLL_kAYIKGyKtvKJB6-74" value="name" style="ellipse;whiteSpace=wrap;html=1;" vertex="1" parent="1">
          <mxGeometry x="1302.4999999999998" y="-30" width="75" height="50" as="geometry" />
        </mxCell>
        <mxCell id="QQaLL_kAYIKGyKtvKJB6-75" value="price" style="ellipse;whiteSpace=wrap;html=1;" vertex="1" parent="1">
          <mxGeometry x="1405" y="-10" width="75" height="50" as="geometry" />
        </mxCell>
        <mxCell id="QQaLL_kAYIKGyKtvKJB6-76" value="" style="endArrow=none;html=1;rounded=0;entryX=0.5;entryY=1;entryDx=0;entryDy=0;exitX=0.5;exitY=0;exitDx=0;exitDy=0;" edge="1" parent="1" target="QQaLL_kAYIKGyKtvKJB6-74" source="InkfnJQ6Ur_ESFkkAOH5-78">
          <mxGeometry width="50" height="50" relative="1" as="geometry">
            <mxPoint x="1371.1100000000001" y="60.5" as="sourcePoint" />
            <mxPoint x="1403.83" y="30" as="targetPoint" />
          </mxGeometry>
        </mxCell>
        <mxCell id="QQaLL_kAYIKGyKtvKJB6-77" value="" style="endArrow=none;html=1;rounded=0;entryX=0;entryY=1;entryDx=0;entryDy=0;exitX=0.75;exitY=0;exitDx=0;exitDy=0;" edge="1" parent="1" target="QQaLL_kAYIKGyKtvKJB6-75" source="InkfnJQ6Ur_ESFkkAOH5-78">
          <mxGeometry width="50" height="50" relative="1" as="geometry">
            <mxPoint x="1391.1100000000001" y="60.5" as="sourcePoint" />
            <mxPoint x="1384.813495705503" y="3.677669529664513" as="targetPoint" />
          </mxGeometry>
        </mxCell>
        <mxCell id="QQaLL_kAYIKGyKtvKJB6-78" value="" style="endArrow=none;html=1;rounded=0;entryX=0.25;entryY=0;entryDx=0;entryDy=0;exitX=1;exitY=1;exitDx=0;exitDy=0;" edge="1" parent="1" source="QQaLL_kAYIKGyKtvKJB6-79" target="InkfnJQ6Ur_ESFkkAOH5-78">
          <mxGeometry width="50" height="50" relative="1" as="geometry">
            <mxPoint x="1313.83" y="155" as="sourcePoint" />
            <mxPoint x="1348.1100000000001" y="60.5" as="targetPoint" />
          </mxGeometry>
        </mxCell>
        <mxCell id="QQaLL_kAYIKGyKtvKJB6-79" value="available_state" style="ellipse;whiteSpace=wrap;html=1;" vertex="1" parent="1">
          <mxGeometry x="1180" y="-10" width="87.5" height="50" as="geometry" />
        </mxCell>
        <mxCell id="QQaLL_kAYIKGyKtvKJB6-80" value="" style="endArrow=none;html=1;rounded=0;exitX=1;exitY=0.5;exitDx=0;exitDy=0;entryX=0;entryY=0.5;entryDx=0;entryDy=0;" edge="1" parent="1" target="QQaLL_kAYIKGyKtvKJB6-81">
          <mxGeometry width="50" height="50" relative="1" as="geometry">
            <mxPoint x="1400" y="95" as="sourcePoint" />
            <mxPoint x="1391.83" y="165" as="targetPoint" />
          </mxGeometry>
        </mxCell>
        <mxCell id="QQaLL_kAYIKGyKtvKJB6-81" value="description" style="ellipse;whiteSpace=wrap;html=1;" vertex="1" parent="1">
          <mxGeometry x="1462.4999999999998" y="70" width="95" height="50" as="geometry" />
        </mxCell>
        <mxCell id="QQaLL_kAYIKGyKtvKJB6-82" value="" style="endArrow=none;html=1;rounded=0;entryX=0.5;entryY=1;entryDx=0;entryDy=0;exitX=1;exitY=0;exitDx=0;exitDy=0;" edge="1" parent="1" source="QQaLL_kAYIKGyKtvKJB6-83" target="QQaLL_kAYIKGyKtvKJB6-81">
          <mxGeometry width="50" height="50" relative="1" as="geometry">
            <mxPoint x="1343.83" y="265" as="sourcePoint" />
            <mxPoint x="1443.83" y="225" as="targetPoint" />
          </mxGeometry>
        </mxCell>
        <mxCell id="QQaLL_kAYIKGyKtvKJB6-83" value="ingredients&amp;nbsp;" style="ellipse;shape=doubleEllipse;whiteSpace=wrap;html=1;" vertex="1" parent="1">
          <mxGeometry x="1402.82" y="160" width="88.83" height="50" as="geometry" />
        </mxCell>
        <mxCell id="QQaLL_kAYIKGyKtvKJB6-84" value="" style="endArrow=none;html=1;rounded=0;entryX=0.5;entryY=1;entryDx=0;entryDy=0;exitX=0.5;exitY=0;exitDx=0;exitDy=0;" edge="1" parent="1" source="QQaLL_kAYIKGyKtvKJB6-85" target="QQaLL_kAYIKGyKtvKJB6-81">
          <mxGeometry width="50" height="50" relative="1" as="geometry">
            <mxPoint x="1393.83" y="255" as="sourcePoint" />
            <mxPoint x="1443.83" y="225" as="targetPoint" />
          </mxGeometry>
        </mxCell>
        <mxCell id="QQaLL_kAYIKGyKtvKJB6-85" value="calories" style="ellipse;whiteSpace=wrap;html=1;" vertex="1" parent="1">
          <mxGeometry x="1473.7499999999998" y="240" width="70" height="50" as="geometry" />
        </mxCell>
        <mxCell id="QQaLL_kAYIKGyKtvKJB6-86" value="" style="endArrow=none;html=1;rounded=0;entryX=0;entryY=0;entryDx=0;entryDy=0;exitX=0.5;exitY=1;exitDx=0;exitDy=0;" edge="1" parent="1" source="QQaLL_kAYIKGyKtvKJB6-81" target="QQaLL_kAYIKGyKtvKJB6-87">
          <mxGeometry width="50" height="50" relative="1" as="geometry">
            <mxPoint x="1393.83" y="225" as="sourcePoint" />
            <mxPoint x="1463.8300000000002" y="255" as="targetPoint" />
          </mxGeometry>
        </mxCell>
        <mxCell id="QQaLL_kAYIKGyKtvKJB6-87" value="preparation_time" style="ellipse;whiteSpace=wrap;html=1;" vertex="1" parent="1">
          <mxGeometry x="1530" y="160" width="102.5" height="50" as="geometry" />
        </mxCell>
        <mxCell id="QQaLL_kAYIKGyKtvKJB6-88" value="quantity" style="ellipse;whiteSpace=wrap;html=1;" vertex="1" parent="1">
          <mxGeometry x="1010" y="620" width="80" height="50" as="geometry" />
        </mxCell>
        <mxCell id="QQaLL_kAYIKGyKtvKJB6-89" value="" style="endArrow=none;html=1;rounded=0;exitX=1;exitY=0.5;exitDx=0;exitDy=0;entryX=0;entryY=0.5;entryDx=0;entryDy=0;" edge="1" parent="1" source="QQaLL_kAYIKGyKtvKJB6-88" target="InkfnJQ6Ur_ESFkkAOH5-117">
          <mxGeometry width="50" height="50" relative="1" as="geometry">
            <mxPoint x="1180" y="740" as="sourcePoint" />
            <mxPoint x="1230" y="690" as="targetPoint" />
          </mxGeometry>
        </mxCell>
      </root>
    </mxGraphModel>
  </diagram>
</mxfile>
